<svg width="8" height="8" viewBox="0 0 8 8" fill="none" xmlns="http://www.w3.org/2000/svg">
<path fill-rule="evenodd" clip-rule="evenodd" d="M4 8C6.20914 8 8 6.20914 8 4C8 1.79086 6.20914 0 4 0C1.79086 0 0 1.79086 0 4C0 6.20914 1.79086 8 4 8ZM5.85355 3.35355C6.04882 3.15829 6.04882 2.84171 5.85355 2.64645C5.65829 2.45118 5.34171 2.45118 5.14645 2.64645L3.5 4.29289L2.85355 3.64645C2.65829 3.45118 2.34171 3.45118 2.14645 3.64645C1.95118 3.84171 1.95118 4.15829 2.14645 4.35355L3.14645 5.35355C3.34171 5.54882 3.65829 5.54882 3.85355 5.35355L5.85355 3.35355Z" fill="#52697A"/>
</svg>
