<svg width="12" height="12" viewBox="0 0 12 12" fill="none" xmlns="http://www.w3.org/2000/svg">
<path fill-rule="evenodd" clip-rule="evenodd" d="M3.6001 1.2C3.6001 0.537258 4.13736 0 4.8001 0H7.2001C7.86284 0 8.4001 0.537258 8.4001 1.2V2.4H10.1939C10.1976 2.39997 10.2013 2.39997 10.2051 2.4H10.8001C11.1315 2.4 11.4001 2.66863 11.4001 3C11.4001 3.33137 11.1315 3.6 10.8001 3.6H10.7588L10.2782 10.3282C10.2109 11.2702 9.4271 12 8.48276 12H3.51744C2.57309 12 1.7893 11.2702 1.72202 10.3282L1.24143 3.6H1.2001C0.868727 3.6 0.600098 3.33137 0.600098 3C0.600098 2.66863 0.868727 2.4 1.2001 2.4H1.79514C1.79887 2.39997 1.80258 2.39997 1.80629 2.4H3.6001V1.2ZM2.44448 3.6L2.91897 10.2427C2.94139 10.5567 3.20266 10.8 3.51744 10.8H8.48276C8.79754 10.8 9.0588 10.5567 9.08123 10.2427L9.55571 3.6H2.44448ZM7.2001 2.4H4.8001V1.2H7.2001V2.4ZM4.8001 4.8C5.13147 4.8 5.4001 5.06863 5.4001 5.4V9C5.4001 9.33137 5.13147 9.6 4.8001 9.6C4.46873 9.6 4.2001 9.33137 4.2001 9V5.4C4.2001 5.06863 4.46873 4.8 4.8001 4.8ZM7.2001 4.8C7.53147 4.8 7.8001 5.06863 7.8001 5.4V9C7.8001 9.33137 7.53147 9.6 7.2001 9.6C6.86873 9.6 6.6001 9.33137 6.6001 9V5.4C6.6001 5.06863 6.86873 4.8 7.2001 4.8Z" fill="#D64241"/>
</svg>
