<svg width="8" height="8" viewBox="0 0 8 8" fill="none" xmlns="http://www.w3.org/2000/svg">
<path fill-rule="evenodd" clip-rule="evenodd" d="M7.85307 3.64645C8.04833 3.84171 8.04833 4.15829 7.85307 4.35355L4.35307 7.85355C4.1578 8.04882 3.84122 8.04882 3.64596 7.85355L0.145958 4.35355C0.0483117 4.25591 -0.000503848 4.12792 -0.000488278 3.99994V1.5C-0.000488278 0.671573 0.671085 0 1.49951 0H3.99965C4.12756 3.48194e-05 4.25547 0.0488503 4.35307 0.146447L7.85307 3.64645ZM1.49951 2C1.77565 2 1.99951 1.77614 1.99951 1.5C1.99951 1.22386 1.77565 1 1.49951 1C1.22337 1 0.999512 1.22386 0.999512 1.5C0.999512 1.77614 1.22337 2 1.49951 2Z" fill="#52697A"/>
</svg>
