<svg width="110" height="28" viewBox="0 0 110 28" fill="none" xmlns="http://www.w3.org/2000/svg">
<g clip-path="url(#clip0_22_2204)">
<path d="M35.0102 19.9089L35.7992 18.5747C35.9746 18.2735 36.3475 18.2735 36.5447 18.4243C36.6543 18.4887 38.4305 19.758 39.8553 19.758C40.9954 19.758 41.8508 19.0268 41.8508 18.1015C41.8508 17.0038 40.9079 16.2509 39.0663 15.5193C37.0053 14.7016 34.9442 13.4107 34.9442 10.8716C34.9442 8.95628 36.3914 6.74008 39.8774 6.74008C42.114 6.74008 43.8238 7.85898 44.2624 8.18181C44.4817 8.31099 44.5474 8.67664 44.3942 8.89185L43.5609 10.1184C43.3858 10.3768 43.0569 10.5488 42.7934 10.3768C42.6183 10.2692 40.9518 9.1931 39.7457 9.1931C38.4965 9.1931 37.8165 10.0108 37.8165 10.6992C37.8165 11.7105 38.6277 12.3994 40.4035 13.1094C42.5305 13.9483 44.986 15.1964 44.986 17.9723C44.986 20.1889 43.0348 22.233 39.9434 22.233C37.1807 22.233 35.5584 20.9633 35.1198 20.5545C34.9223 20.3609 34.8127 20.2533 35.0102 19.9089Z" fill="#2396C9"/>
<path d="M47.7917 7.36424C47.7917 7.14903 47.9892 6.95541 48.2085 6.95541H50.2473C50.4666 6.95541 50.6644 7.14903 50.6644 7.36424V21.6087C50.6644 21.824 50.4666 22.018 50.2473 22.018H48.2085C47.9892 22.018 47.7917 21.824 47.7917 21.6087V7.36424Z" fill="#2396C9"/>
<path d="M61.1001 13.8195C62.2623 13.8195 63.2706 12.8294 63.2706 11.6245C63.2706 10.4844 62.2623 9.53749 61.1001 9.53749H57.5262V13.8195H61.1001ZM54.6542 7.36409C54.6542 7.14887 54.8296 6.95526 55.0707 6.95526H61.3412C63.9721 6.95526 66.1209 9.02103 66.1209 11.5817C66.1209 13.5611 64.7833 15.1752 62.8762 15.9281L65.8798 21.3937C66.0336 21.6734 65.8798 22.0178 65.5072 22.0178H63.2052C63.0077 22.0178 62.8981 21.9102 62.8541 21.8242L59.9382 16.122H57.5041V21.609C57.5041 21.8242 57.3072 22.0178 57.0876 22.0178H55.0707C54.8296 22.0178 54.6542 21.8242 54.6542 21.609V7.36409Z" fill="#2396C9"/>
<path d="M76.0525 6.74008C78.267 6.74008 79.8672 7.42855 81.3583 8.74107C81.5555 8.91346 81.5555 9.1715 81.3804 9.34353L80.0426 10.6992C79.8893 10.8716 79.67 10.8716 79.4946 10.6992C78.5738 9.90315 77.3462 9.42989 76.1186 9.42989C73.3117 9.42989 71.2287 11.7321 71.2287 14.4432C71.2287 17.133 73.3338 19.414 76.1401 19.414C77.4558 19.414 78.5738 18.9191 79.4946 18.1875C79.67 18.0371 79.9114 18.0583 80.0426 18.1875L81.4023 19.5648C81.5776 19.7152 81.5337 19.9949 81.3804 20.1457C79.8893 21.5658 78.0038 22.233 76.0525 22.233C71.6673 22.233 68.1373 18.8115 68.1373 14.508C68.1373 10.2044 71.6673 6.74008 76.0525 6.74008Z" fill="#2396C9"/>
<path d="M84.2516 7.36424C84.2516 7.14903 84.4273 6.95541 84.6681 6.95541H86.6854C86.9047 6.95541 87.1019 7.14903 87.1019 7.36424V19.4354H92.6927C92.9341 19.4354 93.1095 19.6293 93.1095 19.8446V21.6087C93.1095 21.824 92.9341 22.018 92.6927 22.018H84.6681C84.4273 22.018 84.2516 21.824 84.2516 21.6087V7.36424Z" fill="#2396C9"/>
<path d="M101.945 19.4355C104.708 19.4355 106.988 17.2193 106.988 14.5082C106.988 11.7968 104.708 9.53741 101.945 9.53741C99.1826 9.53741 96.9242 11.7968 96.9242 14.5082C96.9242 17.2193 99.1826 19.4355 101.945 19.4355ZM101.945 6.73996C106.33 6.73996 109.839 10.2043 109.839 14.5082C109.839 18.8114 106.33 22.2329 101.945 22.2329C97.5602 22.2329 94.0742 18.8114 94.0742 14.5082C94.0742 10.2043 97.5602 6.73996 101.945 6.73996Z" fill="#2396C9"/>
<path d="M14.263 25.2633C7.96725 25.2633 2.86347 20.2544 2.86347 14.0754C2.86347 7.89674 7.96725 2.88784 14.263 2.88784C20.559 2.88784 25.6628 7.89674 25.6628 14.0754C25.6628 20.2544 20.559 25.2633 14.263 25.2633ZM14.263 0C6.38597 0 0 6.26725 0 13.9978C0 21.7284 6.38597 27.9953 14.263 27.9953C22.1403 27.9953 28.5259 21.7284 28.5259 13.9978C28.5259 6.26725 22.1403 0 14.263 0Z" fill="#2396C9"/>
<path d="M16.2453 18.1409C15.8482 18.1409 15.5248 17.824 15.5248 17.4341C15.5248 17.0447 15.8482 16.7277 16.2453 16.7277C17.7796 16.7277 19.0279 15.5031 19.0279 13.9984C19.0279 12.493 17.7796 11.2683 16.2453 11.2683C14.7118 11.2683 13.4643 12.493 13.4643 13.9984C13.4643 14.3878 13.1413 14.7048 12.7437 14.7048C12.3473 14.7048 12.0247 14.3878 12.0247 13.9984C12.0247 11.7134 13.9182 9.85474 16.2453 9.85474C18.5736 9.85474 20.4678 11.7134 20.4678 13.9984C20.4678 16.2823 18.5736 18.1409 16.2453 18.1409ZM12.2791 18.1409C9.95187 18.1409 8.05843 16.2823 8.05843 13.998C8.05843 11.7134 9.95187 9.85474 12.2791 9.85474C12.6755 9.85474 12.9977 10.1721 12.9977 10.5615C12.9977 10.9513 12.6755 11.2683 12.2791 11.2683C10.7455 11.2683 9.49799 12.4926 9.49799 13.998C9.49799 15.5031 10.7455 16.7277 12.2791 16.7277C13.8126 16.7277 15.0601 15.5031 15.0601 13.998C15.0601 13.6082 15.3827 13.2912 15.7791 13.2912C16.1763 13.2912 16.4997 13.6082 16.4997 13.998C16.4997 16.2823 14.6062 18.1409 12.2791 18.1409ZM14.2631 4.31989C8.78193 4.31989 4.32263 8.69631 4.32263 14.0756C4.32263 19.4549 8.78193 23.8309 14.2631 23.8309C19.7443 23.8309 24.2033 19.4549 24.2033 14.0756C24.2033 8.69631 19.7443 4.31989 14.2631 4.31989Z" fill="#2396C9"/>
</g>
<defs>
<clipPath id="clip0_22_2204">
<rect width="109.926" height="28" fill="white"/>
</clipPath>
</defs>
</svg>
