<svg width="19" height="20" viewBox="0 0 19 20" fill="none" xmlns="http://www.w3.org/2000/svg">
<path fill-rule="evenodd" clip-rule="evenodd" d="M4.5 5C4.5 2.23858 6.73858 0 9.5 0C12.2614 0 14.5 2.23858 14.5 5V6H16.5C17.0201 6 17.4534 6.39866 17.4965 6.91695L18.4965 18.917C18.5198 19.1956 18.4252 19.4713 18.2359 19.6771C18.0465 19.8829 17.7797 20 17.5 20H1.5C1.22035 20 0.953476 19.8829 0.764121 19.6771C0.574766 19.4713 0.480234 19.1956 0.503457 18.917L1.50346 6.91695C1.54665 6.39866 1.97991 6 2.5 6H4.5V5ZM4.5 8V9C4.5 9.55229 4.94772 10 5.5 10C6.05229 10 6.5 9.55229 6.5 9V8H12.5V9C12.5 9.55229 12.9477 10 13.5 10C14.0523 10 14.5 9.55229 14.5 9V8H15.5799L16.4132 18H2.5868L3.42014 8H4.5ZM12.5 6H6.5V5C6.5 3.34315 7.84315 2 9.5 2C11.1569 2 12.5 3.34315 12.5 5V6Z" fill="#52697A"/>
</svg>
